<svg width="12" height="14" viewBox="0 0 12 14" fill="none" xmlns="http://www.w3.org/2000/svg">
<path d="M8.70033 10.7265C8.39737 10.7199 8.15368 10.4665 8.15368 10.1599C8.14709 9.85319 8.39078 9.60053 8.69374 9.59386H8.70033C9.00988 9.59386 9.26015 9.84719 9.26015 10.1599C9.26015 10.4732 9.00988 10.7265 8.70033 10.7265ZM6.01317 8.2732C5.71021 8.2872 5.45993 8.04654 5.44676 7.74054C5.44676 7.43388 5.68386 7.18054 5.98683 7.16654C6.28321 7.16654 6.52689 7.40054 6.53348 7.69987C6.54665 8.00721 6.30955 8.26054 6.01317 8.2732ZM6.01317 10.6932C5.71021 10.7072 5.45993 10.4665 5.44676 10.1599C5.44676 9.85319 5.68386 9.60053 5.98683 9.58653C6.28321 9.58653 6.52689 9.82053 6.53348 10.1205C6.54665 10.4272 6.30955 10.6805 6.01317 10.6932ZM3.30626 8.2732C3.00329 8.2872 2.75302 8.04654 2.73985 7.74054C2.73985 7.43388 2.97695 7.18054 3.27991 7.16654C3.57629 7.16654 3.81998 7.40054 3.82656 7.69987C3.83974 8.00721 3.60263 8.26054 3.30626 8.2732ZM3.29967 10.6932C2.99671 10.7072 2.74643 10.4665 2.73326 10.1599C2.73326 9.85319 2.97036 9.60053 3.27333 9.58653C3.5697 9.58653 3.81339 9.82053 3.81998 10.1205C3.83315 10.4272 3.59605 10.6805 3.29967 10.6932ZM8.16026 7.73387C8.16026 7.42721 8.39737 7.18054 8.70033 7.17388C8.99671 7.17388 9.23381 7.41321 9.24698 7.70721C9.25357 8.01387 9.01647 8.2672 8.72009 8.2732C8.41712 8.27987 8.16685 8.04654 8.16026 7.74054V7.73387ZM0 4.83789V9.91319C0 12.0198 1.33041 13.3332 3.41822 13.3332H8.57519C10.6828 13.3332 12 12.0465 12 9.95386V4.83789H0Z" fill="#30B33D"/>
<path opacity="0.4" d="M0.00292969 4.83781C0.0114917 4.44648 0.0444225 3.66981 0.106333 3.41982C0.422469 2.01382 1.49601 1.1205 3.03059 0.993164H8.97132C10.4927 1.12716 11.5794 2.02649 11.8956 3.41982C11.9568 3.66315 11.9898 4.44581 11.9983 4.83781H0.00292969Z" fill="#30B33D"/>
<path d="M3.53741 3.05998C3.8272 3.05998 4.04454 2.84065 4.04454 2.54665V0.513997C4.04454 0.219999 3.8272 0 3.53741 0C3.24762 0 3.03027 0.219999 3.03027 0.513997V2.54665C3.03027 2.84065 3.24762 3.05998 3.53741 3.05998Z" fill="#30B33D"/>
<path d="M8.46319 3.05998C8.74639 3.05998 8.97032 2.84065 8.97032 2.54665V0.513997C8.97032 0.219999 8.74639 0 8.46319 0C8.1734 0 7.95605 0.219999 7.95605 0.513997V2.54665C7.95605 2.84065 8.1734 3.05998 8.46319 3.05998Z" fill="#30B33D"/>
</svg>
