<svg width="10" height="11" viewBox="0 0 10 11" fill="none" xmlns="http://www.w3.org/2000/svg">
<path d="M7.0027 8.6322C6.75885 8.62684 6.56271 8.42294 6.56271 8.17611C6.55741 7.92928 6.75355 7.72592 6.9974 7.72055H7.0027C7.25185 7.72055 7.45329 7.92445 7.45329 8.17611C7.45329 8.4283 7.25185 8.6322 7.0027 8.6322ZM4.83987 6.65758C4.59602 6.66885 4.39458 6.47515 4.38398 6.22885C4.38398 5.98203 4.57481 5.77813 4.81866 5.76686C5.05721 5.76686 5.25335 5.9552 5.25865 6.19612C5.26925 6.44349 5.07841 6.64739 4.83987 6.65758ZM4.83987 8.60537C4.59602 8.61664 4.39458 8.42294 4.38398 8.17611C4.38398 7.92928 4.57481 7.72592 4.81866 7.71465C5.05721 7.71465 5.25335 7.90299 5.25865 8.14445C5.26925 8.39128 5.07841 8.59518 4.83987 8.60537ZM2.66113 6.65758C2.41728 6.66885 2.21584 6.47515 2.20524 6.22885C2.20524 5.98203 2.39608 5.77813 2.63993 5.76686C2.87847 5.76686 3.07461 5.9552 3.07991 6.19612C3.09052 6.44349 2.89968 6.64739 2.66113 6.65758ZM2.65583 8.60537C2.41198 8.61664 2.21054 8.42294 2.19994 8.17611C2.19994 7.92928 2.39078 7.72592 2.63463 7.71465C2.87317 7.71465 3.06931 7.90299 3.07461 8.14445C3.08522 8.39128 2.89438 8.59518 2.65583 8.60537ZM6.56801 6.22349C6.56801 5.97666 6.75885 5.77813 7.0027 5.77276C7.24125 5.77276 7.43208 5.96539 7.44269 6.20203C7.44799 6.44885 7.25715 6.65275 7.0186 6.65758C6.77475 6.66295 6.57331 6.47515 6.56801 6.22885L6.56801 6.22349ZM0 3.89258L3.20981e-07 7.97757C4.54214e-07 9.67317 1.07081 10.7302 2.75125 10.7302L6.90198 10.7302C8.59832 10.7302 9.65853 9.69463 9.65853 8.0103L9.65853 3.89258L0 3.89258Z" fill="#30B33D"/>
<path opacity="0.4" d="M0.000976806 3.89329C0.00786816 3.57832 0.0343734 2.9532 0.0842033 2.75198C0.338654 1.62033 1.20273 0.901315 2.43787 0.798828L7.21943 0.798828C8.44397 0.906681 9.31864 1.63053 9.5731 2.75198C9.6224 2.94784 9.6489 3.57778 9.65579 3.89329L0.000976806 3.89329Z" fill="#30B33D"/>
<path d="M2.84568 2.46291C3.07893 2.46291 3.25386 2.28637 3.25386 2.04974L3.25386 0.413704C3.25386 0.177072 3.07893 0 2.84568 0C2.61243 0 2.4375 0.177072 2.4375 0.413704L2.4375 2.04974C2.4375 2.28637 2.61244 2.46291 2.84568 2.46291Z" fill="#30B33D"/>
<path d="M6.8115 2.46291C7.03945 2.46291 7.21968 2.28637 7.21968 2.04974L7.21968 0.413704C7.21968 0.177072 7.03945 0 6.8115 0C6.57826 0 6.40332 0.177072 6.40332 0.413704L6.40332 2.04974C6.40332 2.28637 6.57826 2.46291 6.8115 2.46291Z" fill="#30B33D"/>
</svg>
