<svg width="22" height="22" viewBox="0 0 22 22" fill="none" xmlns="http://www.w3.org/2000/svg">
<path d="M9.5 0C8.04131 0 6.64236 0.579463 5.61091 1.61091C4.57946 2.64236 4 4.04131 4 5.5C4 6.95869 4.57946 8.35764 5.61091 9.38909C6.64236 10.4205 8.04131 11 9.5 11C10.9587 11 12.3576 10.4205 13.3891 9.38909C14.4205 8.35764 15 6.95869 15 5.5C15 4.04131 14.4205 2.64236 13.3891 1.61091C12.3576 0.579463 10.9587 0 9.5 0ZM12.382 11.5H19.618L21.699 15.662L16 21.995L10.3 15.662L12.382 11.5ZM10.255 12C9.4361 13.173 8.99794 14.5695 9 16C9 17.487 9.464 18.866 10.255 20H0V18C0 16.4087 0.632141 14.8826 1.75736 13.7574C2.88258 12.6321 4.4087 12 6 12H10.255Z" fill="#30B33D"/>
</svg>
