<svg width="14" height="22" viewBox="0 0 14 22" fill="none" xmlns="http://www.w3.org/2000/svg">
<path d="M0.850399 0.00390625C0.853605 0.663319 0.869819 1.05192 0.951832 1.38248C1.22923 2.50058 2.03788 3.37391 3.07315 3.67351C3.45465 3.78391 3.91964 3.78391 4.84961 3.78391H8.84961C9.77958 3.78391 10.2446 3.78391 10.6261 3.67351C11.6613 3.37391 12.47 2.50058 12.7474 1.38248C12.8294 1.05192 12.8456 0.663319 12.8488 0.00390625M12.8488 21.6039C12.8456 20.9445 12.8294 20.5559 12.7474 20.2253C12.47 19.1072 11.6613 18.2339 10.6261 17.9343C10.2446 17.8239 9.77958 17.8239 8.84961 17.8239H4.84961C3.91964 17.8239 3.45465 17.8239 3.07315 17.9343C2.03788 18.2339 1.22923 19.1072 0.951832 20.2253C0.869819 20.5559 0.853605 20.9445 0.850399 21.6039M4.84961 15.1239H8.84961C9.77958 15.1239 10.2446 15.1239 10.6261 15.0135C11.6613 14.7139 12.47 13.8406 12.7474 12.7225C12.8496 12.3105 12.8496 11.8083 12.8496 10.8039C12.8496 9.79954 12.8496 9.29735 12.7474 8.88533C12.47 7.76723 11.6613 6.8939 10.6261 6.59431C10.2446 6.48391 9.77958 6.48391 8.84961 6.48391H4.84961C3.91964 6.48391 3.45465 6.48391 3.07315 6.59431C2.03788 6.8939 1.22923 7.76723 0.951832 8.88533C0.849609 9.29735 0.849609 9.79954 0.849609 10.8039C0.849609 11.8083 0.849609 12.3105 0.951832 12.7225C1.22923 13.8406 2.03788 14.7139 3.07315 15.0135C3.45465 15.1239 3.91964 15.1239 4.84961 15.1239Z" stroke="#30B33D" stroke-width="1.7"/>
</svg>
