<svg width="13" height="16" viewBox="0 0 13 16" fill="none" xmlns="http://www.w3.org/2000/svg">
<path opacity="0.4" d="M11.2479 5.62405C11.2479 5.67511 10.8876 10.7372 10.6819 12.8677C10.5531 14.1751 9.7945 14.9681 8.65667 14.9906C7.78243 15.0124 6.92659 15.0199 6.08456 15.0199C5.1906 15.0199 4.31635 15.0124 3.46775 14.9906C2.36804 14.9613 1.60883 14.1526 1.48657 12.8677C1.27491 10.7297 0.921269 5.67511 0.914696 5.62405C0.908123 5.4701 0.952821 5.32367 1.04353 5.20502C1.13293 5.09538 1.26176 5.0293 1.39717 5.0293H10.7719C10.9067 5.0293 11.029 5.09538 11.1256 5.20502C11.2156 5.32367 11.261 5.4701 11.2479 5.62405Z" fill="#FF0000"/>
<path d="M12.1658 2.98652C12.1658 2.67788 11.9469 2.43607 11.684 2.43607H9.71329C9.31233 2.43607 8.96394 2.11917 8.87455 1.67236L8.76412 1.12492C8.60965 0.463335 8.07656 0 7.47839 0H4.68804C4.0833 0 3.55547 0.463335 3.39509 1.16096L3.29188 1.67311C3.20183 2.11917 2.85345 2.43607 2.45314 2.43607H0.482477C0.218889 2.43607 0 2.67788 0 2.98652V3.27188C0 3.57301 0.218889 3.82232 0.482477 3.82232H11.684C11.9469 3.82232 12.1658 3.57301 12.1658 3.27188V2.98652Z" fill="#FF0000"/>
</svg>
