<svg width="16" height="16" viewBox="0 0 16 16" fill="none" xmlns="http://www.w3.org/2000/svg">
<path opacity="0.4" d="M15.1036 14.1807H10.042C9.54814 14.1807 9.14648 14.5887 9.14648 15.0903C9.14648 15.5929 9.54814 16 10.042 16H15.1036C15.5974 16 15.9991 15.5929 15.9991 15.0903C15.9991 14.5887 15.5974 14.1807 15.1036 14.1807Z" fill="#30B33D"/>
<path d="M6.49692 3.46944L11.2933 7.34508C11.409 7.43777 11.4287 7.60786 11.3384 7.72634L5.65223 15.1356C5.29479 15.5933 4.76803 15.8522 4.20364 15.8618L1.09952 15.9C0.93397 15.9019 0.789111 15.7872 0.751486 15.6229L0.0460043 12.5556C-0.0762791 11.9918 0.0460043 11.409 0.403448 10.9599L6.11785 3.51531C6.21003 3.39586 6.38029 3.37484 6.49692 3.46944Z" fill="#30B33D"/>
<path opacity="0.4" d="M13.4418 5.03596L12.5171 6.19024C12.424 6.30777 12.2566 6.32689 12.1409 6.23324C11.0168 5.32357 8.13846 2.9892 7.33985 2.34231C7.22321 2.24675 7.20722 2.07667 7.30129 1.95818L8.19302 0.85072C9.00197 -0.190812 10.4129 -0.286366 11.5511 0.621392L12.8586 1.66292C13.3948 2.08336 13.7522 2.63757 13.8745 3.22044C14.0156 3.86161 13.8651 4.4913 13.4418 5.03596Z" fill="#30B33D"/>
</svg>
