<svg width="14" height="15" viewBox="0 0 14 15" fill="none" xmlns="http://www.w3.org/2000/svg">
<path d="M0.573333 1.20004L8.95333 0.0033779C9.00057 -0.00339863 9.04871 4.66369e-05 9.09451 0.0134808C9.1403 0.026915 9.18267 0.0500248 9.21876 0.0812477C9.25485 0.112471 9.28381 0.151079 9.3037 0.194461C9.32358 0.237844 9.33391 0.28499 9.334 0.332711V14.2314C9.3339 14.279 9.32358 14.3261 9.30374 14.3694C9.28389 14.4128 9.25499 14.4513 9.21898 14.4826C9.18296 14.5138 9.14068 14.5369 9.09497 14.5504C9.04926 14.5639 9.00119 14.5674 8.954 14.5607L0.572667 13.364C0.413746 13.3414 0.268328 13.2622 0.163126 13.1409C0.0579234 13.0197 1.54038e-06 12.8646 0 12.704V1.86004C1.54038e-06 1.69952 0.0579234 1.54439 0.163126 1.42314C0.268328 1.30189 0.414413 1.22268 0.573333 1.20004ZM10.0007 1.28204H12.6673C12.8441 1.28204 13.0137 1.35228 13.1387 1.47731C13.2638 1.60233 13.334 1.7719 13.334 1.94871V12.6154C13.334 12.7922 13.2638 12.9618 13.1387 13.0868C13.0137 13.2118 12.8441 13.282 12.6673 13.282H10.0007V1.28204ZM5.46733 7.28204L7.334 4.61538H5.734L4.66733 6.13938L3.60067 4.61538H2.00067L3.86733 7.28204L2.00067 9.94871H3.60067L4.66733 8.42471L5.734 9.94871H7.334L5.46733 7.28204Z" fill="#30B33D"/>
</svg>
