<svg width="20" height="20" viewBox="0 0 20 20" fill="none" xmlns="http://www.w3.org/2000/svg">
<g clip-path="url(#clip0_1326_38222)">
<path d="M9.96238 12.4536C11.338 12.4536 12.4531 11.3384 12.4531 9.96287C12.4531 8.58729 11.338 7.47217 9.96238 7.47217C8.5868 7.47217 7.47168 8.58729 7.47168 9.96287C7.47168 11.3384 8.5868 12.4536 9.96238 12.4536Z" fill="#30B33D"/>
<path d="M19.1023 9.28543C18.0725 7.69294 16.7365 6.34018 15.239 5.37309C13.5823 4.30208 11.7532 3.73584 9.94973 3.73584C8.29498 3.73584 6.66785 4.20868 5.1135 5.14114C3.5284 6.09189 2.09236 7.48084 0.845063 9.26908C0.704255 9.47118 0.626707 9.71058 0.622272 9.95685C0.617837 10.2031 0.686716 10.4452 0.820156 10.6522C1.84796 12.2606 3.17075 13.6154 4.64494 14.5692C6.30475 15.6445 8.09105 16.1893 9.94973 16.1893C11.7676 16.1893 13.6006 15.6278 15.2503 14.5657C16.747 13.6017 18.0803 12.2439 19.1062 10.6382C19.235 10.436 19.3031 10.201 19.3024 9.96124C19.3017 9.72146 19.2323 9.48691 19.1023 9.28543ZM9.96297 13.6986C9.22405 13.6986 8.50172 13.4795 7.88733 13.069C7.27294 12.6585 6.79408 12.075 6.51131 11.3923C6.22854 10.7096 6.15455 9.95844 6.29871 9.23372C6.44286 8.509 6.79869 7.8433 7.32118 7.3208C7.84368 6.79831 8.50938 6.44248 9.2341 6.29833C9.95882 6.15417 10.71 6.22816 11.3927 6.51093C12.0754 6.7937 12.6589 7.27256 13.0694 7.88695C13.4799 8.50134 13.699 9.22367 13.699 9.96259C13.6979 10.9531 13.3039 11.9027 12.6035 12.6031C11.9031 13.3035 10.9535 13.6975 9.96297 13.6986Z" fill="#30B33D"/>
</g>
<defs>
<clipPath id="clip0_1326_38222">
<rect width="19.9256" height="19.9256" fill="white"/>
</clipPath>
</defs>
</svg>
