<svg width="20" height="20" viewBox="0 0 20 20" fill="none" xmlns="http:
<g clip-path="url(#clip0_1326_38363)">
<path d="M9.96335 12.4536C11.3389 12.4536 12.4541 11.3384 12.4541 9.96287C12.4541 8.58729 11.3389 7.47217 9.96335 7.47217C8.58778 7.47217 7.47266 8.58729 7.47266 9.96287C7.47266 11.3384 8.58778 12.4536 9.96335 12.4536Z" fill="#30B33D"/>
<path d="M19.1013 9.28543C18.0715 7.69294 16.7355 6.34018 15.238 5.37309C13.5813 4.30208 11.7522 3.73584 9.94876 3.73584C8.294 3.73584 6.66687 4.20868 5.11252 5.14114C3.52743 6.09189 2.09138 7.48084 0.844087 9.26908C0.703279 9.47118 0.62573 9.71058 0.621295 9.95685C0.61686 10.2031 0.685739 10.4452 0.81918 10.6522C1.84698 12.2606 3.16978 13.6154 4.64396 14.5692C6.30378 15.6445 8.09007 16.1893 9.94876 16.1893C11.7666 16.1893 13.5996 15.6278 15.2493 14.5657C16.746 13.6017 18.0793 12.2439 19.1052 10.6382C19.234 10.436 19.3021 10.201 19.3015 9.96124C19.3008 9.72146 19.2313 9.48691 19.1013 9.28543ZM9.96199 13.6986C9.22307 13.6986 8.50074 13.4795 7.88635 13.069C7.27196 12.6585 6.7931 12.075 6.51033 11.3923C6.22756 10.7096 6.15357 9.95844 6.29773 9.23372C6.44189 8.509 6.79771 7.8433 7.3202 7.3208C7.8427 6.79831 8.5084 6.44248 9.23312 6.29833C9.95785 6.15417 10.709 6.22816 11.3917 6.51093C12.0744 6.7937 12.6579 7.27256 13.0684 7.88695C13.4789 8.50134 13.698 9.22367 13.698 9.96259C13.6969 10.9531 13.3029 11.9027 12.6025 12.6031C11.9021 13.3035 10.9525 13.6975 9.96199 13.6986Z" fill="#30B33D"/>
</g>
<defs>
<clipPath id="clip0_1326_38363">
<rect width="19.9256" height="19.9256" fill="white"/>
</clipPath>
</defs>
</svg>
