<svg width="11" height="12" viewBox="0 0 11 12" fill="none" xmlns="http://www.w3.org/2000/svg">
<path d="M9.86945 7.06251H6.40331V10.8855C6.40331 11.501 5.95089 12 5.39281 12C4.83472 12 4.3823 11.501 4.3823 10.8855V7.06251H0.916164C0.395593 7.00305 0 6.51921 0 5.94198C0 5.36475 0.395593 4.88092 0.916164 4.82146H4.37144V1.01048C4.42535 0.436317 4.86402 0 5.38738 0C5.91073 0 6.3494 0.436317 6.40331 1.01048V4.82146H9.86945C10.39 4.88092 10.7856 5.36475 10.7856 5.94198C10.7856 6.51921 10.39 7.00305 9.86945 7.06251Z" fill="#30B33D"/>
</svg>
