<svg width="17" height="17" viewBox="0 0 17 17" fill="none" xmlns="http://www.w3.org/2000/svg">
<path d="M6.99358 14.075C10.856 14.075 13.9872 10.9242 13.9872 7.03752C13.9872 3.15081 10.856 0 6.99358 0C3.13113 0 0 3.15081 0 7.03752C0 10.9242 3.13113 14.075 6.99358 14.075Z" fill="#30B33D"/>
<path d="M15.1875 16.2294C14.9158 16.2206 14.6575 16.1088 14.4642 15.9165L12.808 13.9806C12.453 13.6559 12.4239 13.104 12.743 12.7434C12.8923 12.5923 13.0953 12.5073 13.3071 12.5073C13.5188 12.5073 13.7219 12.5923 13.8712 12.7434L15.9541 14.41C16.2541 14.7171 16.3467 15.1729 16.1904 15.5739C16.0342 15.9748 15.6583 16.2458 15.2308 16.2658L15.1875 16.2294Z" fill="#30B33D"/>
</svg>
