<svg width="24" height="24" viewBox="0 0 24 24" fill="none" xmlns="http://www.w3.org/2000/svg">
<path d="M6.75918 18.4835C5.99043 17.921 5.40543 16.9254 5.40543 15.9016C5.40543 14.1991 6.79105 12.8135 8.49356 12.8135C9.67293 12.8135 10.4361 13.2223 11.0304 14.0791C11.2573 14.4073 11.5479 14.3491 11.5536 14.0004L11.5254 13.0291C11.5254 11.381 10.2917 10.6348 7.97981 10.6348H6.55293C4.55793 10.6348 3.2998 11.5179 3.2998 13.2466V17.9585C3.2998 18.6766 3.88293 19.2598 4.60105 19.2598H5.8648C5.86855 19.256 5.87043 19.2523 5.87418 19.2485C6.09918 18.9598 6.75918 18.4835 6.75918 18.4835Z" fill="#30B33D"/>
<path d="M7.41527 9.95652C8.99136 9.95652 10.269 8.67886 10.269 7.10277C10.269 5.52669 8.99136 4.24902 7.41527 4.24902C5.83919 4.24902 4.56152 5.52669 4.56152 7.10277C4.56152 8.67886 5.83919 9.95652 7.41527 9.95652Z" fill="#30B33D"/>
<path d="M16.8996 10.6521H15.7127C13.9971 10.6521 12.604 11.7827 12.604 13.9989V14.0421C12.604 14.2071 12.6359 14.2971 12.6902 14.3139C12.784 14.3458 12.8721 14.2258 12.9546 14.0946C13.5134 13.2133 14.2484 12.8139 15.4277 12.8139C17.1302 12.8139 18.5159 14.1996 18.5159 15.9021C18.5159 16.9258 18.0134 17.8333 17.2427 18.3939C17.2427 18.3939 17.884 18.8889 18.1915 19.2414C18.1971 19.2471 18.2009 19.2527 18.2065 19.2583H19.0859C19.804 19.2583 20.3871 18.6752 20.3871 17.9571V13.7608C20.3909 11.6458 18.6171 10.6521 16.8996 10.6521ZM19.849 8.6102C19.4796 7.86957 19.4909 7.20207 19.2959 6.50645L19.2902 6.51207C19.0184 5.21832 17.8727 4.24707 16.4984 4.24707C15.1259 4.24707 13.9802 5.21645 13.7065 6.50832V6.50645C13.5115 7.2002 13.5246 7.8677 13.1534 8.6102C12.8402 9.23832 12.5215 9.19895 12.5215 9.53457C12.5215 9.87019 13.0034 10.1327 13.5996 10.2077C14.0815 10.2696 14.6009 10.2264 15.0021 10.0689C14.3421 9.5852 14.0234 8.86332 13.939 8.52395C13.8865 8.31395 13.8302 8.1152 13.9521 8.09082C14.1059 8.05895 14.0665 8.34207 14.3834 8.75832C15.0265 9.59832 15.5552 9.8927 16.4909 9.89457C17.4265 9.8927 17.9552 9.59832 18.5984 8.75832C18.9171 8.34395 18.874 8.09457 19.0296 8.09082C19.1759 8.08895 19.099 8.3477 19.0465 8.5577C18.9621 8.89332 18.6471 9.59645 17.9965 10.0689C18.3977 10.2264 18.9171 10.2696 19.4009 10.2077C19.9971 10.1308 20.479 9.87019 20.479 9.53457C20.479 9.19895 20.1621 9.23832 19.849 8.6102Z" fill="#30B33D"/>
<path d="M15.3973 18.2028C16.6679 18.2028 17.6979 17.1728 17.6979 15.9022C17.6979 14.6316 16.6679 13.6016 15.3973 13.6016C14.1267 13.6016 13.0967 14.6316 13.0967 15.9022C13.0967 17.1728 14.1267 18.2028 15.3973 18.2028Z" fill="#30B33D"/>
<path d="M13.1124 20.7692C12.9249 20.7692 12.7842 20.5911 12.833 20.4111C13.088 19.4792 14.1361 18.7217 15.3924 18.7217C16.6542 18.7217 17.7042 19.4586 17.9555 20.4129C18.0024 20.5929 17.8636 20.7711 17.6761 20.7711C17.6761 20.7692 13.1124 20.7692 13.1124 20.7692Z" fill="#30B33D"/>
<path d="M8.535 18.2028C9.8056 18.2028 10.8356 17.1728 10.8356 15.9022C10.8356 14.6316 9.8056 13.6016 8.535 13.6016C7.2644 13.6016 6.23438 14.6316 6.23438 15.9022C6.23438 17.1728 7.2644 18.2028 8.535 18.2028Z" fill="#30B33D"/>
<path d="M6.24908 20.7691C6.06158 20.7691 5.92095 20.591 5.9697 20.411C6.2247 19.4791 7.27283 18.7216 8.52908 18.7216C9.79095 18.7216 10.841 19.4585 11.0922 20.4128C11.1391 20.5928 11.0003 20.771 10.8128 20.771C10.8128 20.7691 6.24908 20.7691 6.24908 20.7691ZM13.0497 17.7822C12.8922 17.6041 12.506 17.516 12.2153 17.7503C12.1066 17.8385 11.9622 18.026 11.9622 18.026C11.9622 18.026 11.8178 17.8385 11.7091 17.7503C11.4185 17.516 11.0322 17.6041 10.8747 17.7822C10.6253 18.0653 10.6647 18.4366 10.9778 18.821C11.4072 19.3478 11.9622 19.8503 11.9622 19.8522C11.9622 19.8522 12.5172 19.3497 12.9466 18.821C13.2597 18.4366 13.2991 18.0653 13.0497 17.7822Z" fill="#30B33D"/>
</svg>
