<svg width="15" height="21" viewBox="0 0 15 21" fill="none" xmlns="http://www.w3.org/2000/svg">
<path d="M15 2.25C15 1.65326 14.7629 1.08097 14.341 0.65901C13.919 0.237053 13.3467 0 12.75 0H2.25C1.65326 0 1.08097 0.237053 0.65901 0.65901C0.237053 1.08097 0 1.65326 0 2.25V18.75C0 19.3467 0.237053 19.919 0.65901 20.341C1.08097 20.7629 1.65326 21 2.25 21H12.75C13.3467 21 13.919 20.7629 14.341 20.341C14.7629 19.919 15 19.3467 15 18.75V2.25ZM5.25 3.75C5.25 3.55109 5.32902 3.36032 5.46967 3.21967C5.61032 3.07902 5.80109 3 6 3H9C9.19891 3 9.38968 3.07902 9.53033 3.21967C9.67098 3.36032 9.75 3.55109 9.75 3.75C9.75 3.94891 9.67098 4.13968 9.53033 4.28033C9.38968 4.42098 9.19891 4.5 9 4.5H6C5.80109 4.5 5.61032 4.42098 5.46967 4.28033C5.32902 4.13968 5.25 3.94891 5.25 3.75ZM4.5 9C4.5 8.20435 4.81607 7.44129 5.37868 6.87868C5.94129 6.31607 6.70435 6 7.5 6C8.29565 6 9.05871 6.31607 9.62132 6.87868C10.1839 7.44129 10.5 8.20435 10.5 9C10.5 9.79565 10.1839 10.5587 9.62132 11.1213C9.05871 11.6839 8.29565 12 7.5 12C6.70435 12 5.94129 11.6839 5.37868 11.1213C4.81607 10.5587 4.5 9.79565 4.5 9ZM4.0425 13.5H10.9575C11.454 13.5 11.9925 13.857 12.0375 14.4855C12.072 14.958 12.03 15.8685 11.3475 16.665C10.656 17.475 9.444 18 7.5 18C5.556 18 4.344 17.475 3.651 16.665C2.97 15.8685 2.928 14.958 2.961 14.4855C3.006 13.8555 3.546 13.5 4.0425 13.5Z" fill="#30B33D"/>
</svg>
