<svg width="24" height="26" viewBox="0 0 24 26" fill="none" xmlns="http://www.w3.org/2000/svg">
<path d="M16 12V4L12 0L8 4V6.66667H0V25.3333H24V12H16ZM5.33333 22.6667H2.66667V20H5.33333V22.6667ZM5.33333 17.3333H2.66667V14.6667H5.33333V17.3333ZM5.33333 12H2.66667V9.33333H5.33333V12ZM13.3333 22.6667H10.6667V20H13.3333V22.6667ZM13.3333 17.3333H10.6667V14.6667H13.3333V17.3333ZM13.3333 12H10.6667V9.33333H13.3333V12ZM13.3333 6.66667H10.6667V4H13.3333V6.66667ZM21.3333 22.6667H18.6667V20H21.3333V22.6667ZM21.3333 17.3333H18.6667V14.6667H21.3333V17.3333Z" fill="#30B33D"/>
</svg>
