<svg width="32" height="32" viewBox="0 0 32 32" fill="none" xmlns="http://www.w3.org/2000/svg">
<path d="M12.2846 19.8992L8.65526 22.0004L15.9996 26.2524L23.344 22.0004L19.7146 19.8992L21.0481 17.5898L28.6663 22.0004L15.9996 29.3337L3.33301 22.0004L10.9512 17.5898L12.2846 19.8992Z" fill="#30B33D"/>
<path fill-rule="evenodd" clip-rule="evenodd" d="M14.4604 21.0002L14.8453 21.6669L16 23.667L17.1547 21.6669L17.5396 21.0002C19.2043 18.117 21.6734 13.8407 22.0633 13.1674C22.66 12.137 23 10.9422 23 9.66699C23 5.80099 19.866 2.66699 16 2.66699C12.134 2.66699 9 5.80099 9 9.66699C9 10.9422 9.34 12.137 9.93669 13.1674C10.3266 13.8407 12.7958 18.117 14.4604 21.0002ZM16 18.3336C14.43 15.6144 12.5784 12.4079 12.2444 11.831L16 18.3336ZM16 18.3336C17.5701 15.6143 19.4217 12.4077 19.7557 11.831C20.1228 11.197 20.3333 10.4617 20.3333 9.66699C20.3333 7.27374 18.3932 5.33362 16 5.33362C13.6068 5.33362 11.6667 7.27374 11.6667 9.66699C11.6667 10.4617 11.8772 11.197 12.2444 11.831" fill="#30B33D"/>
<path d="M18.3336 9.33331C18.3336 10.622 17.289 11.6667 16.0003 11.6667C14.7117 11.6667 13.667 10.622 13.667 9.33331C13.667 8.04469 14.7117 7 16.0003 7C17.289 7 18.3336 8.04469 18.3336 9.33331Z" fill="#30B33D"/>
</svg>
