<svg width="27" height="27" viewBox="0 0 27 27" fill="none" xmlns="http://www.w3.org/2000/svg">
<path d="M25.9867 6.83592L13.9867 0.169252C13.7892 0.0582863 13.5665 0 13.34 0C13.1135 0 12.8908 0.0582863 12.6933 0.169252L0.68 6.83592C0.253333 7.07592 0 7.51592 0 7.99592V10.6626C0 11.3959 0.6 11.9959 1.33333 11.9959H4V21.3293H1.33333C0.6 21.3293 0 21.9293 0 22.6626V25.3293C0 26.0626 0.6 26.6626 1.33333 26.6626H25.3333C26.0667 26.6626 26.6667 26.0626 26.6667 25.3293V22.6626C26.6667 21.9293 26.0667 21.3293 25.3333 21.3293H22.6667V11.9959H25.3333C26.0667 11.9959 26.6667 11.3959 26.6667 10.6626V7.99592C26.6663 7.75966 26.6031 7.52775 26.4836 7.32392C26.3641 7.1201 26.1926 6.95169 25.9867 6.83592ZM9.33333 21.3293H6.66667V11.9959H9.33333V21.3293ZM14.6667 21.3293H12V11.9959H14.6667V21.3293ZM13.3333 9.32925C12.2267 9.32925 11.3333 8.43592 11.3333 7.32925C11.3333 6.22258 12.2267 5.32925 13.3333 5.32925C14.44 5.32925 15.3333 6.22258 15.3333 7.32925C15.3333 8.43592 14.44 9.32925 13.3333 9.32925ZM20 21.3293H17.3333V11.9959H20V21.3293Z" fill="#30B33D"/>
</svg>
