<svg width="32" height="27" viewBox="0 0 32 27" fill="none" xmlns="http://www.w3.org/2000/svg">
<path fill-rule="evenodd" clip-rule="evenodd" d="M30.832 10.5326L27.7737 4.26971C27.492 3.69252 27.0537 3.20607 26.509 2.86581C25.9642 2.52554 25.3349 2.34513 24.6926 2.34514H23.6914V10.5326H30.832ZM20.8343 1.25257C20.513 0.861307 20.109 0.546067 19.6513 0.329496C19.1937 0.112924 18.6937 0.000398089 18.1874 0H3.42857C2.51926 0 1.64719 0.361223 1.00421 1.0042C0.361223 1.64719 0 2.51926 0 3.42857V18.5737C0 19.483 0.361223 20.3551 1.00421 20.9981C1.64719 21.6411 2.51926 22.0023 3.42857 22.0023H4.12343C4.19489 23.1006 4.68159 24.1306 5.48475 24.8832C6.2879 25.6358 7.34733 26.0546 8.448 26.0546C9.54867 26.0546 10.6081 25.6358 11.4113 24.8832C12.2144 24.1306 12.7011 23.1006 12.7726 22.0023H18.608C18.6804 23.1386 19.1971 24.2009 20.0464 24.9593C20.8957 25.7177 22.0094 26.1114 23.1467 26.0553C24.284 25.9991 25.3535 25.4976 26.1239 24.6592C26.8944 23.8208 27.3039 22.7128 27.264 21.5749H27.6434C28.5527 21.5749 29.4248 21.2136 30.0678 20.5707C30.7108 19.9277 31.072 19.0556 31.072 18.1463V13.3897H22.2629C21.884 13.3897 21.5206 13.2392 21.2527 12.9713C20.9848 12.7034 20.8343 12.34 20.8343 11.9611V1.25257Z" fill="#30B33D"/>
</svg>
