<svg width="23" height="9" viewBox="0 0 23 9" fill="none" xmlns="http://www.w3.org/2000/svg">
<path d="M15.6667 0.00797216C15.5957 -0.0081618 15.5214 0.00034715 15.456 0.0320976C15.3906 0.063848 15.3379 0.116945 15.3067 0.182638L12.6667 7.72264V5.34131L12.2833 2.66064C12.4057 2.63486 12.5184 2.57518 12.6084 2.48841C12.6985 2.40165 12.7623 2.2913 12.7927 2.16997L13.126 0.836639C13.1506 0.738394 13.1525 0.635832 13.1316 0.536741C13.1106 0.437651 13.0674 0.344637 13.0051 0.26476C12.9428 0.184883 12.8632 0.120243 12.7722 0.0757492C12.6812 0.0312552 12.5813 0.00807609 12.48 0.00797216H10.188C10.0867 0.00800013 9.98681 0.0310964 9.8958 0.0755088C9.80479 0.119921 9.7251 0.184483 9.66277 0.264292C9.60044 0.344101 9.55711 0.437061 9.53607 0.536116C9.51503 0.635171 9.51683 0.737717 9.54133 0.835973L9.87467 2.16931C9.90489 2.29076 9.96868 2.40124 10.0588 2.48813C10.1488 2.57502 10.2615 2.63481 10.384 2.66064L10 5.34131V7.13864L7.36 0.182638C7.32878 0.116945 7.27611 0.063848 7.21067 0.0320976C7.14523 0.00034715 7.07092 -0.0081618 7 0.00797216C6.74515 0.069499 6.49003 0.129944 6.23467 0.189305C4.72667 0.542638 2.86267 0.978638 1.872 1.6293C0.696666 2.40064 0 3.30997 0 4.34131V8.67464H22.6667V4.34131C22.6667 3.30997 21.97 2.4013 20.7947 1.6293C19.804 0.978638 17.94 0.542638 16.432 0.189305C16.1633 0.126638 15.9053 0.0666388 15.6667 0.00797216Z" fill="#30B33D"/>
</svg>
